<svg width="25" height="25" viewBox="0 0 25 25" fill="none" xmlns="http://www.w3.org/2000/svg">
<path d="M1.56253 5.46875C1.56253 4.17433 2.61186 3.125 3.90628 3.125H8.22492C9.72143 3.125 10.9762 3.99994 11.8366 4.97496C12.477 5.7006 13.248 6.25 14.0625 6.25H21.0949C22.39 6.25 23.4375 7.30004 23.4375 8.59375V9.5927C24.3274 10.0073 24.9053 10.9627 24.7745 12.0095L23.7737 20.0158C23.5293 21.9706 21.8676 23.4375 19.8976 23.4375H5.10247C3.13246 23.4375 1.47074 21.9706 1.22639 20.0158L0.225597 12.0095C0.094747 10.9627 0.672611 10.0073 1.56253 9.5927V5.46875ZM3.12503 9.375H21.875V8.59375C21.875 8.16157 21.5256 7.8125 21.0949 7.8125H14.0625C12.5564 7.8125 11.3898 6.83011 10.6651 6.00883C9.9591 5.20886 9.09573 4.6875 8.22492 4.6875H3.90628C3.4748 4.6875 3.12503 5.03728 3.12503 5.46875V9.375ZM2.55125 10.9375C2.08133 10.9375 1.71775 11.3494 1.77603 11.8157L2.77682 19.822C2.92343 20.9948 3.92046 21.875 5.10247 21.875H19.8976C21.0796 21.875 22.0766 20.9948 22.2232 19.822L23.224 11.8157C23.2823 11.3494 22.9187 10.9375 22.4488 10.9375H2.55125Z" fill="#AAAAAA"/>
</svg>
