<svg width="25" height="25" viewBox="0 0 25 25" fill="none" xmlns="http://www.w3.org/2000/svg">
<path fill-rule="evenodd" clip-rule="evenodd" d="M0 23.75C0 23.0596 0.46637 22.5 1.04167 22.5H23.9583C24.5336 22.5 25 23.0596 25 23.75C25 24.4404 24.5336 25 23.9583 25H1.04167C0.46637 25 0 24.4404 0 23.75Z" fill="white"/>
<path fill-rule="evenodd" clip-rule="evenodd" d="M0 16.25C0 15.5596 0.46637 15 1.04167 15H23.9583C24.5336 15 25 15.5596 25 16.25C25 16.9404 24.5336 17.5 23.9583 17.5H1.04167C0.46637 17.5 0 16.9404 0 16.25Z" fill="white"/>
<path fill-rule="evenodd" clip-rule="evenodd" d="M0 8.75C0 8.05964 0.46637 7.5 1.04167 7.5H23.9583C24.5336 7.5 25 8.05964 25 8.75C25 9.44036 24.5336 10 23.9583 10H1.04167C0.46637 10 0 9.44036 0 8.75Z" fill="white"/>
<path fill-rule="evenodd" clip-rule="evenodd" d="M0 1.25C0 0.559644 0.46637 0 1.04167 0H23.9583C24.5336 0 25 0.559644 25 1.25C25 1.94036 24.5336 2.5 23.9583 2.5H1.04167C0.46637 2.5 0 1.94036 0 1.25Z" fill="white"/>
</svg>
