<svg width="30" height="30" viewBox="0 0 30 30" fill="none" xmlns="http://www.w3.org/2000/svg">
<path d="M15.0001 8.91415C11.639 8.91415 8.91426 11.6389 8.91426 15C8.91426 18.361 11.639 21.0858 15.0001 21.0858C18.3612 21.0858 21.0859 18.361 21.0859 15C21.0859 11.6389 18.3612 8.91415 15.0001 8.91415ZM10.7893 15C10.7893 12.6744 12.6745 10.7891 15.0001 10.7891C17.3256 10.7891 19.2109 12.6744 19.2109 15C19.2109 17.3255 17.3256 19.2108 15.0001 19.2108C12.6745 19.2108 10.7893 17.3255 10.7893 15Z" fill="white"/>
<path d="M18.3684 2.51883C17.3785 -0.839611 12.6215 -0.839609 11.6316 2.51883L11.4556 3.11586C11.1609 4.11599 10.0185 4.58916 9.10288 4.09041L8.55629 3.79268C5.48155 2.11786 2.11786 5.48156 3.79268 8.55629L4.09041 9.10288C4.58916 10.0185 4.11599 11.1609 3.11586 11.4556L2.51883 11.6316C-0.839611 12.6215 -0.839609 17.3785 2.51883 18.3684L3.11586 18.5444C4.11599 18.8391 4.58916 19.9815 4.09041 20.8971L3.79268 21.4437C2.11786 24.5184 5.48155 27.8821 8.55629 26.2073L9.10288 25.9096C10.0185 25.4108 11.1609 25.884 11.4556 26.8841L11.6316 27.4812C12.6215 30.8396 17.3785 30.8396 18.3684 27.4812L18.5444 26.8841C18.8391 25.884 19.9815 25.4108 20.8971 25.9096L21.4437 26.2073C24.5184 27.8821 27.8821 24.5184 26.2073 21.4437L25.9096 20.8971C25.4108 19.9815 25.884 18.8391 26.8841 18.5444L27.4812 18.3684C30.8396 17.3785 30.8396 12.6215 27.4812 11.6316L26.8841 11.4556C25.884 11.1609 25.4108 10.0185 25.9096 9.10288L26.2073 8.55629C27.8821 5.48155 24.5184 2.11787 21.4437 3.79268L20.8971 4.09041C19.9815 4.58916 18.8391 4.11599 18.5444 3.11586L18.3684 2.51883ZM13.4301 3.04893C13.8915 1.48369 16.1085 1.48369 16.5699 3.04893L16.7459 3.64596C17.3784 5.79186 19.8294 6.80712 21.794 5.73698L22.3406 5.43925C23.7736 4.65868 25.3413 6.22638 24.5607 7.6594L24.263 8.20599C23.1929 10.1706 24.2081 12.6216 26.354 13.2541L26.9511 13.4301C28.5163 13.8915 28.5163 16.1085 26.9511 16.5699L26.354 16.7459C24.2081 17.3784 23.1929 19.8294 24.263 21.794L24.5607 22.3406C25.3413 23.7736 23.7736 25.3413 22.3406 24.5608L21.794 24.263C19.8294 23.1929 17.3784 24.2081 16.7459 26.354L16.5699 26.9511C16.1085 28.5163 13.8915 28.5163 13.4301 26.9511L13.2541 26.354C12.6216 24.2081 10.1706 23.1929 8.20599 24.263L7.65939 24.5608C6.22638 25.3413 4.65868 23.7736 5.43925 22.3406L5.73698 21.794C6.80712 19.8294 5.79187 17.3784 3.64597 16.7459L3.04893 16.5699C1.48369 16.1085 1.48369 13.8915 3.04893 13.4301L3.64597 13.2541C5.79186 12.6216 6.80712 10.1706 5.73698 8.20599L5.43925 7.6594C4.65868 6.22638 6.22638 4.65868 7.6594 5.43925L8.20599 5.73698C10.1706 6.80712 12.6216 5.79187 13.2541 3.64597L13.4301 3.04893Z" fill="white"/>
</svg>
