<svg width="30" height="30" viewBox="0 0 30 30" fill="none" xmlns="http://www.w3.org/2000/svg">
<g clip-path="url(#clip0_3816_909)">
<mask id="mask0_3816_909" style="mask-type:luminance" maskUnits="userSpaceOnUse" x="0" y="0" width="30" height="30">
<path d="M0 0H30V30H0V0Z" fill="white"/>
</mask>
<g mask="url(#mask0_3816_909)">
<path d="M16.0072 14.7858C15.6894 14.9238 15.3466 14.995 15.0001 14.995C14.6536 14.995 14.3108 14.9238 13.9929 14.7858L1.77864 9.12862C1.5803 9.02859 1.41362 8.87547 1.29717 8.68629C1.18071 8.49712 1.11905 8.27934 1.11905 8.05719C1.11905 7.83507 1.18071 7.61727 1.29717 7.42812C1.41362 7.23894 1.5803 7.08582 1.77864 6.98577L13.9929 1.28577C14.3108 1.14776 14.6536 1.07654 15.0001 1.07654C15.3466 1.07654 15.6894 1.14776 16.0072 1.28577L28.2214 6.94291C28.4199 7.04296 28.5866 7.19609 28.7029 7.38526C28.8195 7.57441 28.881 7.79221 28.881 8.01434C28.881 8.23649 28.8195 8.45427 28.7029 8.64344C28.5866 8.83261 28.4199 8.98574 28.2214 9.08577L16.0072 14.7858Z" stroke="white" stroke-width="1.5" stroke-linecap="round" stroke-linejoin="round"/>
<path d="M28.9286 15.7501L15.8572 21.7715C15.578 21.899 15.2747 21.9648 14.9679 21.9648C14.661 21.9648 14.3578 21.899 14.0786 21.7715L1.07144 15.7501" stroke="white" stroke-width="1.5" stroke-linecap="round" stroke-linejoin="round"/>
<path d="M28.9286 22.7144L15.8572 28.7358C15.578 28.8633 15.2747 28.9291 14.9679 28.9291C14.661 28.9291 14.3578 28.8633 14.0786 28.7358L1.07144 22.7144" stroke="white" stroke-width="1.5" stroke-linecap="round" stroke-linejoin="round"/>
</g>
</g>
<defs>
<clipPath id="clip0_3816_909">
<rect width="30" height="30" fill="white"/>
</clipPath>
</defs>
</svg>
