<svg width="25" height="25" viewBox="0 0 25 25" fill="none" xmlns="http://www.w3.org/2000/svg">
<path d="M7.8125 6.25C7.38103 6.25 7.03125 6.59978 7.03125 7.03125C7.03125 7.46272 7.38103 7.8125 7.8125 7.8125H17.1875C17.619 7.8125 17.9688 7.46272 17.9688 7.03125C17.9688 6.59978 17.619 6.25 17.1875 6.25H7.8125Z" fill="#AAAAAA"/>
<path d="M7.03125 10.1562C7.03125 9.72478 7.38103 9.375 7.8125 9.375H17.1875C17.619 9.375 17.9688 9.72478 17.9688 10.1562C17.9688 10.5877 17.619 10.9375 17.1875 10.9375H7.8125C7.38103 10.9375 7.03125 10.5877 7.03125 10.1562Z" fill="#AAAAAA"/>
<path d="M7.8125 12.5C7.38103 12.5 7.03125 12.8498 7.03125 13.2812C7.03125 13.7127 7.38103 14.0625 7.8125 14.0625H17.1875C17.619 14.0625 17.9688 13.7127 17.9688 13.2812C17.9688 12.8498 17.619 12.5 17.1875 12.5H7.8125Z" fill="#AAAAAA"/>
<path d="M7.8125 15.625C7.38103 15.625 7.03125 15.9748 7.03125 16.4062C7.03125 16.8377 7.38103 17.1875 7.8125 17.1875H12.5C12.9315 17.1875 13.2812 16.8377 13.2812 16.4062C13.2812 15.9748 12.9315 15.625 12.5 15.625H7.8125Z" fill="#AAAAAA"/>
<path d="M3.125 3.125C3.125 1.39911 4.52411 0 6.25 0H18.75C20.4759 0 21.875 1.39911 21.875 3.125V21.875C21.875 23.6009 20.4759 25 18.75 25H6.25C4.52411 25 3.125 23.6009 3.125 21.875V3.125ZM18.75 1.5625H6.25C5.38706 1.5625 4.6875 2.26205 4.6875 3.125V21.875C4.6875 22.7379 5.38706 23.4375 6.25 23.4375H18.75C19.6129 23.4375 20.3125 22.7379 20.3125 21.875V3.125C20.3125 2.26206 19.6129 1.5625 18.75 1.5625Z" fill="#AAAAAA"/>
</svg>
