<svg width="30" height="30" viewBox="0 0 30 30" fill="none" xmlns="http://www.w3.org/2000/svg">
<path d="M20.625 1.875C21.6605 1.875 22.5 2.71447 22.5 3.75V26.25C22.5 27.2855 21.6605 28.125 20.625 28.125H9.375C8.33947 28.125 7.5 27.2855 7.5 26.25V3.75C7.5 2.71447 8.33947 1.875 9.375 1.875H20.625ZM9.375 0C7.30393 0 5.625 1.67893 5.625 3.75V26.25C5.625 28.3211 7.30393 30 9.375 30H20.625C22.6961 30 24.375 28.3211 24.375 26.25V3.75C24.375 1.67893 22.6961 0 20.625 0H9.375Z" fill="white"/>
<path d="M15 26.25C16.0355 26.25 16.875 25.4105 16.875 24.375C16.875 23.3395 16.0355 22.5 15 22.5C13.9645 22.5 13.125 23.3395 13.125 24.375C13.125 25.4105 13.9645 26.25 15 26.25Z" fill="white"/>
</svg>
