<svg width="30" height="30" viewBox="0 0 30 30" fill="none" xmlns="http://www.w3.org/2000/svg">
<path fill-rule="evenodd" clip-rule="evenodd" d="M1.875 15C1.875 7.75126 7.75126 1.875 15 1.875C22.2487 1.875 28.125 7.75126 28.125 15C28.125 22.2487 22.2487 28.125 15 28.125C12.1258 28.125 9.46987 27.2022 7.30869 25.6365C6.995 25.4093 6.90459 24.8762 7.3056 24.4752L10.6812 21.0996C13.2517 23.0267 16.9143 22.8214 19.2521 20.4837L21.9037 17.832C22.0795 17.6562 22.1783 17.4177 22.1783 17.1691C22.1783 16.9205 22.0795 16.682 21.9037 16.5062L20.5772 15.1797L23.5011 12.2497C23.8668 11.8832 23.8662 11.2896 23.4997 10.9239C23.1332 10.5582 22.5396 10.5588 22.1739 10.9253L19.2514 13.8539L16.6002 11.2027L19.5256 8.27518C19.8916 7.90894 19.8914 7.31535 19.5252 6.94936C19.1589 6.58337 18.5653 6.58357 18.1994 6.94982L15.2744 9.87683L13.9488 8.55124C13.5826 8.18512 12.9891 8.18512 12.6229 8.55124L9.97129 11.2029C7.63354 13.5406 7.42824 17.2033 9.35537 19.7738L5.97978 23.1493C4.89272 24.2364 4.81814 26.1476 6.20867 27.155C8.67908 28.9447 11.7177 30 15 30C23.2843 30 30 23.2843 30 15C30 6.71573 23.2843 0 15 0C6.71573 0 0 6.71573 0 15C0 15.5178 0.419733 15.9375 0.9375 15.9375C1.45527 15.9375 1.875 15.5178 1.875 15Z" fill="white"/>
</svg>
