<svg width="30" height="30" viewBox="0 0 30 30" fill="none" xmlns="http://www.w3.org/2000/svg">
<path d="M24.7982 0.517198L21.464 3.8514L21.2732 4.04217L21.328 4.30635L22.0104 7.60137L22.077 7.92297L22.3986 7.98958L25.6936 8.67204L25.9578 8.72675L26.1486 8.53598L29.4828 5.20178C29.4942 5.34128 29.5 5.48242 29.5 5.625C29.5 8.45546 27.2055 10.75 24.375 10.75C23.9128 10.75 23.4656 10.6889 23.0407 10.5747L22.7639 10.5003L22.5599 10.7015L17.5351 15.655L17.1765 16.0086L17.5326 16.3647L19.3339 18.1661L19.5525 18.3846L19.8456 18.2868L21.5588 17.7158C22.0529 17.5511 22.5976 17.6797 22.9659 18.048L29.0973 24.1794C29.3659 24.448 29.5 24.799 29.5 25.1516C29.5 25.5043 29.3659 25.8553 29.0973 26.1239L26.1239 29.0973C25.8553 29.3659 25.5043 29.5 25.1516 29.5C24.799 29.5 24.448 29.3659 24.1794 29.0973L18.048 22.9659C17.6797 22.5976 17.5511 22.0529 17.7158 21.5588L18.2868 19.8456L18.3846 19.5525L18.1661 19.3339L16.3513 17.5192L16.0002 17.1681L15.6467 17.5167L10.6695 22.4233L10.4561 22.6337L10.541 22.921C10.6769 23.3813 10.75 23.8692 10.75 24.375C10.75 27.2055 8.45546 29.5 5.625 29.5C2.79454 29.5 0.5 27.2055 0.5 24.375C0.5 21.5445 2.79454 19.25 5.625 19.25C6.13081 19.25 6.61866 19.3231 7.07901 19.459L7.36634 19.5439L7.57667 19.3305L12.4834 14.3533L12.8319 13.9998L12.4808 13.6487L7.46523 8.63312C7.01983 8.18772 6.41574 7.9375 5.78585 7.9375H5.65241C5.20835 7.9375 4.79163 7.72305 4.53352 7.3617L0.653058 1.92905L1.92905 0.653058L7.3617 4.53352C7.72305 4.79163 7.9375 5.20835 7.9375 5.65241V5.78585C7.9375 6.41574 8.18772 7.01983 8.63312 7.46523L13.6354 12.4675L13.9914 12.8236L14.345 12.4649L19.2985 7.4402L19.4997 7.23612L19.4253 6.95936C19.3111 6.53446 19.25 6.08725 19.25 5.625C19.25 2.79454 21.5445 0.5 24.375 0.5C24.5176 0.5 24.6587 0.50581 24.7982 0.517198ZM5.8535 20.1802L5.625 20.0628L5.3965 20.1802L4.60939 20.5846L3.72551 20.628L3.46893 20.6406L3.32975 20.8565L2.85029 21.6003L2.1065 22.0797L1.89058 22.2189L1.878 22.4755L1.83467 23.3594L1.43026 24.1465L1.31287 24.375L1.43026 24.6035L1.83467 25.3906L1.878 26.2745L1.89058 26.531L2.1065 26.6702L2.85029 27.1497L3.32975 27.8935L3.46893 28.1094L3.72551 28.122L4.60938 28.1653L5.3965 28.5697L5.625 28.6871L5.8535 28.5697L6.64062 28.1653L7.52449 28.122L7.78107 28.1094L7.92025 27.8935L8.39972 27.1497L9.1435 26.6702L9.35942 26.531L9.372 26.2745L9.41533 25.3906L9.81974 24.6035L9.93713 24.375L9.81974 24.1465L9.41533 23.3594L9.372 22.4755L9.35942 22.2189L9.1435 22.0797L8.39971 21.6003L7.92025 20.8565L7.78107 20.6406L7.52449 20.628L6.64061 20.5846L5.8535 20.1802ZM21.6415 19.6085C21.0801 19.0472 20.1699 19.0472 19.6085 19.6085C19.0472 20.1699 19.0472 21.0801 19.6085 21.6415L25.0727 27.1056C25.6341 27.667 26.5442 27.667 27.1056 27.1056C27.667 26.5442 27.667 25.6341 27.1056 25.0727L21.6415 19.6085Z" fill="white" stroke="white"/>
</svg>
